<svg xmlns="http://www.w3.org/2000/svg" height="40" viewBox="0 -960 960 960" width="40"><path d="M186.666-120q-27 0-46.833-19.833T120-186.666v-586.668q0-27 19.833-46.833T186.666-840h586.668q27 0 46.833 19.833T840-773.334v586.668q0 27-19.833 46.833T773.334-120H186.666Zm0-66.666h586.668v-586.668H186.666v586.668ZM237.333-278h486l-148-197.333-128 167.333-92-124.666-118 154.666Zm-50.667 91.334v-586.668 586.668Zm153.412-380.001q22.255 0 37.755-15.578 15.5-15.579 15.5-37.833 0-22.255-15.578-37.755-15.579-15.5-37.833-15.5-22.255 0-37.755 15.578-15.5 15.579-15.5 37.833 0 22.255 15.578 37.755 15.579 15.5 37.833 15.5Z"/></svg>