<svg xmlns="http://www.w3.org/2000/svg" height="24" viewBox="0 96 960 960" width="24"><path d="M440 576q-66 0-113-47t-47-113q0-66 47-113t113-47q66 0 113 47t47 113q0 66-47 113t-113 47Zm0-80q33 0 56.5-23.5T520 416q0-33-23.5-56.5T440 336q-33 0-56.5 23.5T360 416q0 33 23.5 56.5T440 496Zm444 540L756 908q-21 12-45 20t-51 8q-75 0-127.5-52.5T480 756q0-75 52.5-127.5T660 576q75 0 127.5 52.5T840 756q0 27-8 51t-20 45l128 128-56 56ZM660 856q42 0 71-29t29-71q0-42-29-71t-71-29q-42 0-71 29t-29 71q0 42 29 71t71 29Zm-540 40V785q0-34 17-63t47-44q51-26 115-44t142-18q-12 18-20.5 38.5T407 697q-60 5-107 20.5T221 750q-10 5-15.5 14.5T200 785v31h207q5 22 13.5 42t20.5 38H120Zm320-480Zm-33 400Z"/></svg>