<svg xmlns="http://www.w3.org/2000/svg" height="24" viewBox="0 96 960 960" width="24"><path d="M640 778.5q84.037 0 143.269-59.224 59.231-59.223 59.231-143.25 0-84.026-59.231-143.276Q724.037 373.5 640 373.5q-28.212 0-54.856 7.5Q558.5 388.5 536 402q29 35.5 45.25 79.973t16.25 94q0 49.527-16.25 94.027T536 750q22.5 13.5 49.144 21T640 778.5ZM480 700q20-25.5 31.25-57.124Q522.5 611.253 522.5 576t-11.25-66.876Q500 477.5 480 452q-20 25.5-31.25 57.124Q437.5 540.747 437.5 576t11.25 66.876Q460 674.5 480 700Zm-160 78.5q28.212 0 54.856-7.5Q401.5 763.5 424 750q-29-35.5-45.25-79.973t-16.25-94q0-49.527 16.25-94.027T424 402q-22.5-13.5-49.144-21T320 373.5q-84.038 0-143.269 59.224-59.231 59.223-59.231 143.25 0 84.026 59.231 143.276Q235.962 778.5 320 778.5Zm0 75q-115.955 0-196.728-80.781Q42.5 691.937 42.5 575.969 42.5 460 123.272 379.25 204.045 298.5 320 298.5q45 0 85.5 13.25T480 349q34-24 74.5-37.25T640 298.5q115.955 0 196.728 80.781 80.772 80.782 80.772 196.75 0 115.969-80.772 196.719Q755.955 853.5 640 853.5q-45 0-85.5-13.25T480 803q-34 24-74.5 37.25T320 853.5Z"/></svg>