<svg xmlns="http://www.w3.org/2000/svg" height="20" viewBox="0 -960 960 960" width="20"><path d="M480-96q-78.72 0-148.8-30.24-70.08-30.24-122.4-82.56-52.32-52.32-82.56-122.4Q96-401.28 96-480q0-79.68 30.24-149.28T208.8-751.2q52.32-52.32 122.4-82.56Q401.28-864 480-864q79.68 0 149.28 30.24T751.2-751.2q52.32 52.32 82.56 121.92Q864-559.68 864-480v60q0 54.845-38.5 93.423Q787-288 731.726-288 698-288 669.5-305T621-350q-28 29-64.5 45.5T479.736-288q-79.571 0-135.653-56.226Q288-400.452 288-480.226T344.226-616q56.226-56 136-56T616-615.84q56 56.16 56 135.84v60q0 25 17.5 42.5T732-360q25 0 42.5-17.5T792-420v-60q0-130-91-221t-221-91q-130 0-221 91t-91 221q0 130 91 221t221 91h192v72H480Zm0-264q50 0 85-35t35-85q0-50-35-85t-85-35q-50 0-85 35t-35 85q0 50 35 85t85 35Z"/></svg>