<?xml version="1.0" encoding="iso-8859-1"?>
<!-- Uploaded to: SVG Repo, www.svgrepo.com, Generator: SVG Repo Mixer Tools -->
<svg fill="#000000" height="800px" width="800px" version="1.1" id="Capa_1" xmlns="http://www.w3.org/2000/svg" xmlns:xlink="http://www.w3.org/1999/xlink" 
	 viewBox="0 0 53.987 53.987" xml:space="preserve">
<g>
	<g>
		<path d="M12.658,4.363c0.137,0,0.277-0.029,0.41-0.089c1.072-0.483,2.286-0.894,3.609-1.223c0.536-0.133,0.862-0.676,0.729-1.212
			c-0.134-0.537-0.678-0.863-1.212-0.73c-1.439,0.358-2.768,0.809-3.948,1.341c-0.503,0.227-0.728,0.819-0.501,1.322
			C11.913,4.143,12.277,4.363,12.658,4.363z"/>
		<path d="M20.365,2.365c0.042,0,0.083-0.002,0.125-0.008c1.218-0.152,2.531-0.259,3.901-0.316c0.552-0.023,0.98-0.489,0.957-1.041
			c-0.023-0.552-0.474-0.977-1.041-0.957c-1.425,0.06-2.793,0.171-4.065,0.33c-0.548,0.068-0.937,0.568-0.868,1.116
			C19.438,1.994,19.868,2.365,20.365,2.365z"/>
		<path d="M36.095,2.772c1.343,0.27,2.586,0.617,3.695,1.028c0.115,0.043,0.232,0.063,0.348,0.063c0.406,0,0.788-0.25,0.938-0.652
			c0.192-0.518-0.072-1.093-0.589-1.286c-1.207-0.448-2.551-0.823-3.996-1.114c-0.545-0.107-1.069,0.242-1.178,0.783
			C35.203,2.136,35.553,2.663,36.095,2.772z"/>
		<path d="M28.327,2c1.375,0.028,2.694,0.101,3.918,0.216c0.032,0.003,0.064,0.004,0.095,0.004c0.51,0,0.946-0.388,0.995-0.906
			c0.052-0.55-0.352-1.038-0.901-1.09C31.16,0.105,29.792,0.03,28.368,0c-0.579-0.016-1.009,0.428-1.021,0.979
			C27.336,1.532,27.775,1.989,28.327,2z"/>
		<path d="M47.44,11.222c0.346,1.104,0.556,2.343,0.625,3.683c0.027,0.534,0.469,0.949,0.998,0.949c0.018,0,0.035,0,0.052-0.002
			c0.552-0.028,0.976-0.498,0.947-1.05c-0.077-1.507-0.317-2.913-0.714-4.178c-0.165-0.527-0.725-0.819-1.253-0.655
			C47.568,10.134,47.275,10.695,47.44,11.222z"/>
		<path d="M45.796,7.979c0.197,0.261,0.497,0.399,0.8,0.399c0.209,0,0.42-0.065,0.6-0.201c0.441-0.332,0.53-0.959,0.198-1.4
			c-0.842-1.119-1.897-2.111-3.137-2.949C43.8,3.52,43.179,3.639,42.869,4.097c-0.309,0.457-0.189,1.079,0.269,1.389
			C44.193,6.199,45.088,7.038,45.796,7.979z"/>
		<path d="M8.225,27.468c-0.22-0.506-0.808-0.741-1.315-0.521c-0.507,0.219-0.74,0.808-0.521,1.315
			c0.526,1.216,1.168,2.451,1.906,3.668c0.188,0.31,0.518,0.481,0.856,0.481c0.177,0,0.356-0.047,0.518-0.145
			c0.472-0.287,0.623-0.901,0.336-1.374C9.313,29.753,8.714,28.601,8.225,27.468z"/>
		<path d="M49.032,17.852c-0.558-0.063-1.043,0.336-1.103,0.886c-0.129,1.187-0.342,2.48-0.632,3.847
			c-0.115,0.541,0.23,1.071,0.77,1.186c0.07,0.015,0.14,0.022,0.209,0.022c0.462,0,0.877-0.322,0.977-0.792
			c0.304-1.432,0.528-2.793,0.664-4.046C49.978,18.405,49.581,17.912,49.032,17.852z"/>
		<path d="M4.931,17.173c0.552-0.003,0.997-0.454,0.994-1.006l-0.001-0.221c-0.001-1.273,0.115-2.464,0.342-3.539
			c0.114-0.54-0.231-1.071-0.772-1.186c-0.543-0.113-1.072,0.231-1.186,0.771c-0.256,1.211-0.386,2.542-0.385,3.954l0.001,0.233
			c0.003,0.55,0.451,0.994,1,0.994C4.927,17.173,4.929,17.173,4.931,17.173z"/>
		<path d="M8.624,4.679C7.489,5.625,6.548,6.733,5.827,7.973C5.549,8.451,5.71,9.063,6.188,9.341
			C6.346,9.433,6.519,9.476,6.69,9.476c0.344,0,0.68-0.178,0.865-0.497c0.604-1.038,1.394-1.968,2.35-2.765
			c0.424-0.354,0.481-0.984,0.127-1.409C9.678,4.383,9.047,4.325,8.624,4.679z"/>
		<path d="M47.549,25.703c-0.52-0.192-1.094,0.071-1.286,0.589c-0.429,1.154-0.972,2.33-1.613,3.495
			c-0.267,0.484-0.09,1.092,0.394,1.358c0.153,0.084,0.318,0.124,0.481,0.124c0.353,0,0.695-0.187,0.877-0.518
			c0.689-1.251,1.273-2.518,1.736-3.763C48.331,26.472,48.067,25.896,47.549,25.703z"/>
		<path d="M42.573,33.064c-0.595,0.83-1.257,1.658-1.95,2.476c-0.634-0.341-1.347-0.553-2.116-0.553c-2.481,0-4.5,2.019-4.5,4.5
			c0,0.73,0.191,1.41,0.501,2.021c-0.779,0.631-1.558,1.222-2.33,1.764c-1.798-1.822-4.335-3.006-4.763-3.197
			c-0.26-0.116-0.558-0.116-0.817,0c-0.428,0.192-2.968,1.377-4.767,3.202c-0.774-0.544-1.551-1.143-2.325-1.77
			c0.309-0.61,0.5-1.29,0.5-2.019c0-2.481-2.019-4.5-4.5-4.5c-0.769,0-1.482,0.212-2.115,0.553c-0.406-0.479-0.81-0.961-1.183-1.445
			c-0.337-0.438-0.966-0.519-1.402-0.182c-0.438,0.337-0.519,0.965-0.182,1.402c0.395,0.513,0.825,1.025,1.255,1.533
			c-0.542,0.743-0.872,1.65-0.872,2.639c0,2.481,2.019,4.5,4.5,4.5c1.028,0,1.965-0.36,2.723-0.942
			c0.791,0.642,1.587,1.255,2.38,1.815c-0.371,0.661-0.603,1.372-0.603,2.127c0,3.85,5.917,6.611,6.591,6.913
			c0.13,0.058,0.27,0.087,0.409,0.087s0.279-0.029,0.409-0.087c0.675-0.302,6.591-3.063,6.591-6.913c0-0.757-0.234-1.47-0.606-2.132
			c0.792-0.558,1.589-1.163,2.385-1.809c0.758,0.581,1.694,0.941,2.721,0.941c2.481,0,4.5-2.019,4.5-4.5
			c0-0.988-0.33-1.895-0.872-2.638c0.733-0.865,1.432-1.741,2.063-2.619c0.322-0.449,0.219-1.074-0.229-1.396
			C43.519,32.512,42.894,32.616,42.573,33.064z M13.007,39.487c0-1.378,1.122-2.5,2.5-2.5s2.5,1.122,2.5,2.5
			c0,0.587-0.212,1.121-0.552,1.548c-0.014,0.014-0.032,0.021-0.045,0.036c-0.014,0.017-0.018,0.038-0.031,0.056
			c-0.459,0.523-1.123,0.86-1.872,0.86C14.129,41.987,13.007,40.866,13.007,39.487z M27.007,51.88c-1.645-0.82-5-2.901-5-4.893
			c0-1.985,3.356-4.07,5-4.893c1.645,0.82,5,2.901,5,4.893C32.007,48.972,28.651,51.057,27.007,51.88z M38.507,41.987
			c-1.378,0-2.5-1.122-2.5-2.5s1.122-2.5,2.5-2.5s2.5,1.122,2.5,2.5S39.886,41.987,38.507,41.987z"/>
		<path d="M6.249,20.01c-0.081-0.546-0.587-0.92-1.136-0.843c-0.546,0.081-0.924,0.589-0.843,1.136
			c0.18,1.217,0.437,2.534,0.785,4.005l0.974-0.228l0.951-0.323C6.667,22.432,6.421,21.171,6.249,20.01z"/>
	</g>
</g>
</svg>