<?xml version="1.0" encoding="iso-8859-1"?>
<!-- Uploaded to: SVG Repo, www.svgrepo.com, Generator: SVG Repo Mixer Tools -->
<!DOCTYPE svg PUBLIC "-//W3C//DTD SVG 1.1//EN" "http://www.w3.org/Graphics/SVG/1.1/DTD/svg11.dtd">
<svg fill="#000000" version="1.1" id="Capa_1" xmlns="http://www.w3.org/2000/svg" xmlns:xlink="http://www.w3.org/1999/xlink" 
	 width="800px" height="800px" viewBox="0 0 31.92 31.92" xml:space="preserve"
	>
<g>
	<path d="M15.833,0.411c3.709-1.952,5.725,3.622,6.149,4.866c0.424,1.244,0.059,4.832,2.206,4.309
		c-0.229,0.42-1.21,0.488-1.21,0.488s0.176,0.678,1.171,0.781c-0.396,0.308-1.698,0.098-1.698,0.098s0.424,0.737,1.024,0.957
		c-0.366,0.278-1.317-0.507-1.317-0.507s0.85,1.986,1.332,2.308c-0.526,0.059-1.664-1-1.664-1s0.654,2.597,1.094,3.241
		c-0.338,0.073-1.055-0.584-1.055-0.584s0.449,1.346,0.996,1.873c-0.584,0.195-1.132-0.625-1.132-0.625s0.332,2.323,1.015,5.232
		c-0.526-0.292-0.683-0.801-0.683-0.801s0.353,6.97,2.304,8.552c-1.736,0.175-3.104-6.169-3.104-6.169s1.016,8.414-0.352,6.637
		c0.69-2.578-0.528-3.732-1.037-4.65c-0.508-0.916,0.1-4.062-0.057-4.388c-1.015-0.429-2.811-5.759-2.107-6.579
		c0.679-0.494,3.981-2.421,1.289-4.725c-1.016-0.839-3.164-3.768-4.587-5.837c-0.645,0.098-2.499,8.07-2.226,8.765
		c1.522,8.062,3.339,11.754,3.563,12.496s0.292,2.73,0.448,3.316c-0.332-0.233-0.674-2.576-0.674-2.576s-0.244,1.357,0.02,2.128
		c-0.469-0.187-0.547-3.593-1.308-5.017c-0.167,0.233,0.625,8.224,0.888,8.92c-0.478-0.389-0.771-3.201-0.771-3.201
		s-0.722,2.421-1.21,2.615c0.155-0.371,0.771-2.646,0.468-3.064c-0.361,1.367-0.761,1.542-0.761,1.542s0.303-2.069-0.156-2.089
		c-0.605,1.24-1.269,1.914-1.269,1.914s0.956-3.719,0.429-4.432c-0.273,0.545-1.054,1.209-1.054,1.209s0.605-2.029,0.234-2.537
		c-0.245-0.361-0.429,0.088-0.605,0.391c0.312-1.63,0.097-9.917,0.097-9.917s-0.371,0.537-0.839,0.741
		c0.312-0.595,0.371-1.112,0.371-1.112s-0.752,0.722-1.406,0.605c0.986-0.595,1.66-1.669,1.854-1.874
		c-0.488,0.303-1.278,0.898-1.288,0.527c0.517-0.371,0.996-1.582,0.996-1.582s-0.605,0.438-0.645,0.137
		c0.352-0.176,0.878-1.191,0.878-1.191s-1.051,1.015-1.52,0.791c0.263-0.137,0.104-0.498,0.104-0.498s-0.896,0.624-1.472,0.467
		c2.961-1.404,2.298-4.749,3.182-7.574C11.451,1.508,13.655-0.635,15.833,0.411z"/>
</g>
</svg>